<svg width="64" height="64" viewBox="0 0 64 64" fill="none" xmlns="http://www.w3.org/2000/svg">
<rect x="0.5" y="0.5" width="63" height="63" rx="15.5" fill="white" stroke="#686868"/>
<path d="M6.02266 40.4494C6.68935 43.4494 12.0226 59.9494 31.5226 60.4494C51.0227 60.9495 60.0227 42.4495 59.0227 33.4494C58.0226 24.4494 44.5227 21.4495 32.0226 42.4494C19.5226 63.4494 5.35598 37.4494 6.02266 40.4494Z" fill="#686868"/>
<path d="M13.0227 15.9505C10.5226 17.9504 9.52264 17.9504 6.52267 19.9505C6.52265 14.9505 7.06742 12.8758 8.52264 10.4504C10.3227 7.45043 13.5407 6.98659 15.0227 9.95047C16.0227 11.9505 16.2423 13.3748 13.0227 15.9505Z" fill="#686868"/>
<path d="M39.0423 10.4559C44.0226 11.0676 44.9067 17.6356 49.5227 16.5676C55.5226 15.1792 56.4956 11.0671 55.0226 8.17925C53.5169 5.22737 49.5227 4.67925 45.6344 5.57793C43.6858 6.02832 39.5982 7.46572 39.0423 10.4559Z" fill="#686868"/>
<path d="M10.5227 27.4495C10.0227 28.4495 10.4034 31.4495 9.02267 31.4495C7.64196 31.4495 7.02267 28.8302 7.02267 27.4495C7.02267 26.0687 9.14196 22.9495 10.5227 22.9495C13.5227 23.9495 10.5227 26.0687 10.5227 27.4495Z" fill="#686868"/>
<path d="M17.5028 35.889C17.7207 37.2219 14.9411 38.608 14.5227 38.9495C14.1627 39.2432 14.2122 40.0751 14.5227 40.9495C14.9059 42.029 16.5752 42.6732 16.0227 42.9495C15.4309 43.2453 13.9736 42.2904 13.5247 40.9495C13.2149 40.0244 12.9301 39.1536 12.5227 38.9495C11.6858 38.1413 9.75533 36.9495 9.55223 35.889C9.2143 34.1246 11.8509 35.2736 13.5247 35.889C15.3735 35.889 17.0844 34.4655 17.5028 35.889Z" fill="#686868"/>
<path d="M33.5227 28.0083C33.5227 29.6326 30.6256 32.4495 28.5227 32.4495C26.4197 32.4495 24.5227 26.5738 24.5227 24.9495C24.5227 22.4495 25.3275 20.9495 27.4304 20.9495C29.5333 20.9495 33.5227 26.3839 33.5227 28.0083Z" fill="#686868"/>
<circle cx="9.02267" cy="26.4495" r="0.5" fill="white"/>
<circle cx="27.5227" cy="25.9495" r="1" fill="white"/>
</svg>
