<svg width="437" height="57" viewBox="0 0 437 57" fill="none" xmlns="http://www.w3.org/2000/svg">
<path d="M276.933 28H269.067C268.489 28 268.03 27.5148 268.06 26.938C268.162 24.9789 268.357 20.4712 268.357 14.7788C268.357 9.38919 268.182 5.76967 268.077 4.08565C268.04 3.50015 268.505 3 269.091 3H276.909C277.495 3 277.96 3.50015 277.923 4.08565C277.818 5.76967 277.643 9.38919 277.643 14.7788C277.643 20.4712 277.838 24.9789 277.94 26.938C277.97 27.5148 277.511 28 276.933 28Z" fill="url(#paint0_linear_3_248)"/>
<path d="M276.936 55H269.064C268.487 55 268.029 54.5153 268.058 53.9393C268.159 51.9258 268.357 47.2129 268.357 41.25C268.357 35.5942 268.179 31.8127 268.074 30.0822C268.039 29.4979 268.502 29 269.088 29H276.912C277.498 29 277.961 29.4979 277.926 30.0822C277.821 31.8127 277.643 35.5942 277.643 41.25C277.643 47.2129 277.841 51.9258 277.942 53.9393C277.971 54.5153 277.513 55 276.936 55Z" fill="url(#paint1_linear_3_248)"/>
<path d="M303 46.0472L303 53.9528C303 54.5232 302.525 54.9789 301.955 54.9568C299.498 54.8618 292.923 54.6429 284.49 54.6429C276.414 54.6429 271.177 54.8437 269.063 54.9442C268.487 54.9715 268 54.5124 268 53.9356L268 46.0644C268 45.4876 268.487 45.0285 269.063 45.0558C271.177 45.1563 276.414 45.3571 284.49 45.3571C292.923 45.3571 299.498 45.1382 301.955 45.0432C302.525 45.0211 303 45.4768 303 46.0472Z" fill="url(#paint2_linear_3_248)"/>
<path d="M10.439 3.5H32.3902C40.4815 3.5 43.4306 16.4242 41.2376 25.8456C49.1855 33.1582 47.1853 55 35.2371 55H10.4948V43.1846H31.2784C36.2204 43.1846 36.6755 36.6915 32.6435 35.4957C32.5596 35.4986 32.4752 35.5 32.3902 35.5H10.439V23.5H10.4948V23.4923H29.1343C33.7057 23.2144 33.6203 15.5 28.878 15.5H10.439V3.5Z" fill="url(#paint3_linear_3_248)" fill-opacity="0.8"/>
<path d="M8.93332 28H1.06668C0.489033 28 0.0299257 27.5148 0.0598707 26.938C0.161567 24.9789 0.357143 20.4712 0.357143 14.7788C0.357143 9.38919 0.181815 5.76967 0.0768482 4.08565C0.0403527 3.50015 0.504563 3 1.09121 3H8.90879C9.49544 3 9.95965 3.50015 9.92315 4.08565C9.81818 5.76967 9.64286 9.38919 9.64286 14.7788C9.64286 20.4712 9.83843 24.9789 9.94013 26.938C9.97007 27.5148 9.51097 28 8.93332 28Z" fill="url(#paint4_linear_3_248)"/>
<path d="M8.93596 55H1.06404C0.487371 55 0.028773 54.5153 0.0576769 53.9393C0.158725 51.9258 0.357143 47.2129 0.357143 41.25C0.357143 35.5942 0.178639 31.8127 0.0740257 30.0822C0.0387069 29.4979 0.502242 29 1.08756 29H8.91244C9.49776 29 9.96129 29.4979 9.92597 30.0822C9.82136 31.8127 9.64286 35.5942 9.64286 41.25C9.64286 47.2129 9.84128 51.9258 9.94232 53.9393C9.97123 54.5153 9.51263 55 8.93596 55Z" fill="url(#paint5_linear_3_248)"/>
<path d="M215.439 3.5H237.39C245.481 3.5 248.431 16.4242 246.238 25.8456C254.185 33.1582 252.185 55 240.237 55H215.495V43.1846H236.278C241.22 43.1846 241.675 36.6915 237.643 35.4957C237.56 35.4986 237.475 35.5 237.39 35.5H215.439V23.5H215.495V23.4923H234.134C238.706 23.2144 238.62 15.5 233.878 15.5H215.439V3.5Z" fill="url(#paint6_linear_3_248)" fill-opacity="0.8"/>
<path d="M213.933 28H206.067C205.489 28 205.03 27.5148 205.06 26.938C205.162 24.9789 205.357 20.4712 205.357 14.7788C205.357 9.38919 205.182 5.76967 205.077 4.08565C205.04 3.50015 205.505 3 206.091 3H213.909C214.495 3 214.96 3.50015 214.923 4.08565C214.818 5.76967 214.643 9.38919 214.643 14.7788C214.643 20.4712 214.838 24.9789 214.94 26.938C214.97 27.5148 214.511 28 213.933 28Z" fill="url(#paint7_linear_3_248)"/>
<path d="M213.936 55H206.064C205.487 55 205.029 54.5153 205.058 53.9393C205.159 51.9258 205.357 47.2129 205.357 41.25C205.357 35.5942 205.179 31.8127 205.074 30.0822C205.039 29.4979 205.502 29 206.088 29H213.912C214.498 29 214.961 29.4979 214.926 30.0822C214.821 31.8127 214.643 35.5942 214.643 41.25C214.643 47.2129 214.841 51.9258 214.942 53.9393C214.971 54.5153 214.513 55 213.936 55Z" fill="url(#paint8_linear_3_248)"/>
<path d="M101.115 25L88 3L80.25 16C83.3333 17.5969 89.5 19.5 93.5 27.8953L101.115 25Z" fill="url(#paint9_angular_3_248)"/>
<path d="M72.5 29C74.1515 29.2821 77.2429 30.4365 80.0737 33L93.5 27.8953C89.5 19.5 83.3333 17.5969 80.25 16L72.5 29Z" fill="url(#paint10_angular_3_248)"/>
<path d="M57 55C57 55 71.7914 51.348 78.5 49C88.5 45.5 90.5 45 92.5 45C94.5 45 95.5 45.5 103.5 49.5C111.5 53.5 119 55 119 55L107.077 35C99 36 91.7453 35.0272 84 38.1406C72.8615 42.6179 62.5355 50.0846 57 55Z" fill="url(#paint11_angular_3_248)"/>
<path d="M84 38.1406C91.7453 35.0272 99 36 107.077 35L101.115 25L93.5 27.8953L80.0737 33C81.5282 34.3172 82.9139 36.0064 84 38.1406Z" fill="url(#paint12_angular_3_248)"/>
<path d="M72.5 29L57 55C62.5355 50.0846 72.8615 42.6179 84 38.1406C82.9139 36.0064 81.5282 34.3172 80.0737 33C77.2429 30.4365 74.1515 29.2821 72.5 29Z" fill="url(#paint13_angular_3_248)"/>
<path d="M57 55L72.5 29M57 55C62.5355 50.0846 72.8615 42.6179 84 38.1406M57 55C57 55 71.7914 51.348 78.5 49C88.5 45.5 90.5 45 92.5 45C94.5 45 95.5 45.5 103.5 49.5C111.5 53.5 119 55 119 55L107.077 35M107.077 35C99 36 91.7453 35.0272 84 38.1406M107.077 35L101.115 25M72.5 29C74.1515 29.2821 77.2429 30.4365 80.0737 33M72.5 29L80.25 16M84 38.1406C82.9139 36.0064 81.5282 34.3172 80.0737 33M80.0737 33L93.5 27.8953M101.115 25L88 3L80.25 16M101.115 25L93.5 27.8953M80.25 16C83.3333 17.5969 89.5 19.5 93.5 27.8953" stroke="white"/>
<path fill-rule="evenodd" clip-rule="evenodd" d="M157.568 41.4379C156.631 40.0545 155.622 38.4964 154.623 36.8313C152.14 32.6918 150.311 29.9688 149.406 28.6656C149.07 28.181 149.208 27.5062 149.714 27.2028L156.403 23.1908C156.909 22.8874 157.57 23.0832 157.839 23.6081C158.51 24.9171 159.883 27.5017 162.059 31.1706C164.234 27.5017 165.608 24.9171 166.279 23.6081C166.548 23.0832 167.208 22.8874 167.714 23.1908L174.403 27.2028C174.909 27.5062 175.047 28.181 174.711 28.6656C173.806 29.9688 171.977 32.6918 169.494 36.8313C166.867 41.2115 164.108 44.8507 162.791 46.5192C162.523 46.8586 162.092 46.9617 161.721 46.8372C161.526 46.7839 161.346 46.669 161.21 46.4918C160.678 45.7996 159.91 44.7778 159.008 43.5109L157.741 41.821C157.654 41.7057 157.595 41.5749 157.568 41.4379Z" fill="url(#paint14_linear_3_248)"/>
<path fill-rule="evenodd" clip-rule="evenodd" d="M137.067 28H144.933C145.511 28 145.97 27.5148 145.94 26.938C145.889 25.9546 145.814 24.329 145.753 22.2338C146.684 23.9051 147.391 25.2312 147.824 26.0585C148.094 26.5733 148.743 26.7592 149.241 26.4603L155.971 22.4236C156.469 22.1247 156.611 21.465 156.284 20.9848C155.273 19.5012 153.112 16.2598 150.602 12.0744C148.238 8.13277 146.767 5.36076 146.066 3.9869C146.017 3.89092 145.955 3.80591 145.884 3.7329C145.76 3.31263 145.373 3 144.909 3H137.091C136.505 3 136.04 3.50015 136.077 4.08565C136.182 5.76967 136.357 9.38919 136.357 14.7788C136.357 20.4712 136.162 24.9789 136.06 26.938C136.03 27.5148 136.489 28 137.067 28Z" fill="url(#paint15_linear_3_248)"/>
<path d="M144.936 55H137.064C136.487 55 136.029 54.5153 136.058 53.9393C136.159 51.9258 136.357 47.2129 136.357 41.25C136.357 35.5942 136.179 31.8127 136.074 30.0822C136.039 29.4979 136.502 29 137.088 29H144.912C145.498 29 145.961 29.4979 145.926 30.0822C145.821 31.8127 145.643 35.5942 145.643 41.25C145.643 47.2129 145.841 51.9258 145.942 53.9393C145.971 54.5153 145.513 55 144.936 55Z" fill="url(#paint16_linear_3_248)"/>
<path fill-rule="evenodd" clip-rule="evenodd" d="M179.067 28H186.933C187.511 28 187.97 27.5148 187.94 26.938C187.838 24.9789 187.643 20.4712 187.643 14.7788C187.643 9.38919 187.818 5.76967 187.923 4.08565C187.96 3.50015 187.495 3 186.909 3H179.091C178.555 3 178.121 3.41789 178.078 3.93687C178.069 3.9532 178.06 3.96988 178.051 3.9869C177.35 5.36076 175.88 8.13277 173.515 12.0744C171.005 16.2598 168.844 19.5012 167.834 20.9848C167.507 21.465 167.648 22.1247 168.146 22.4236L174.876 26.4603C175.375 26.7592 176.023 26.5733 176.293 26.0585C176.707 25.2683 177.37 24.0231 178.241 22.4567C178.18 24.4444 178.109 25.9897 178.06 26.938C178.03 27.5148 178.489 28 179.067 28Z" fill="url(#paint17_linear_3_248)"/>
<path d="M186.936 55H179.064C178.487 55 178.029 54.5153 178.058 53.9393C178.159 51.9258 178.357 47.2129 178.357 41.25C178.357 35.5942 178.179 31.8127 178.074 30.0822C178.039 29.4979 178.502 29 179.088 29H186.912C187.498 29 187.961 29.4979 187.926 30.0822C187.821 31.8127 187.643 35.5942 187.643 41.25C187.643 47.2129 187.841 51.9258 187.942 53.9393C187.971 54.5153 187.513 55 186.936 55Z" fill="url(#paint18_linear_3_248)"/>
<path d="M313.5 35.5C314.167 38.5 319.5 55 339 55.5C358.5 56 367.5 37.5 366.5 28.5C365.5 19.4999 352 16.5 339.5 37.5C327 58.4999 312.833 32.5 313.5 35.5Z" fill="#496054"/>
<path d="M320.5 11.001C318 13.001 317 13.001 314 15.001C314 10.001 314.545 7.92634 316 5.50099C317.8 2.50097 321.018 2.03713 322.5 5.001C323.5 7.001 323.72 8.42534 320.5 11.001Z" fill="#496054"/>
<path d="M346.52 5.50642C351.5 6.1181 352.384 12.6862 357 11.6181C363 10.2298 363.973 6.11767 362.5 3.22979C360.994 0.277907 357 -0.270218 353.112 0.62847C351.163 1.07885 347.075 2.51626 346.52 5.50642Z" fill="#496054"/>
<path d="M318 22.5C317.5 23.5 317.881 26.5 316.5 26.5C315.119 26.5 314.5 23.8807 314.5 22.5C314.5 21.1193 316.619 18 318 18C321 19 318 21.1193 318 22.5Z" fill="#496054"/>
<path d="M324.98 30.9396C325.198 32.2724 322.418 33.6585 322 34C321.64 34.2937 321.69 35.1256 322 36C322.383 37.0795 324.052 37.7237 323.5 38C322.908 38.2959 321.451 37.3409 321.002 36C320.692 35.0749 320.407 34.2041 320 34C319.163 33.1918 317.233 32 317.03 30.9396C316.692 29.1751 319.328 30.3242 321.002 30.9395C322.851 30.9395 324.562 29.516 324.98 30.9396Z" fill="#496054"/>
<path d="M341 23.0588C341 24.6832 338.103 27.5 336 27.5C333.897 27.5 332 21.6244 332 20C332 17.5 332.805 16 334.908 16C337.011 16 341 21.4344 341 23.0588Z" fill="#496054"/>
<circle cx="316.5" cy="21.5" r="0.5" fill="white"/>
<circle cx="335" cy="21" r="1" fill="white"/>
<path fill-rule="evenodd" clip-rule="evenodd" d="M435.955 31.0679C435.639 36.6133 433.649 41.9467 430.229 46.3549C426.489 51.1773 421.25 54.6183 415.339 56.136C409.428 57.6538 403.18 57.1621 397.578 54.7383C391.977 52.3145 387.342 48.0963 384.402 42.7482C381.461 37.4001 380.384 31.2259 381.339 25.1981C382.293 19.1702 385.226 13.6312 389.675 9.45337C394.124 5.27557 399.836 2.69639 405.912 2.12205C411.988 1.5477 418.082 3.01083 423.235 6.28098L417.341 15.5686C414.249 13.6065 410.593 12.7286 406.947 13.0732C403.302 13.4178 399.874 14.9653 397.205 17.472C394.536 19.9787 392.776 23.3021 392.203 26.9188C391.63 30.5356 392.277 34.2401 394.041 37.4489C395.805 40.6578 398.586 43.1887 401.947 44.643C405.308 46.0972 409.057 46.3923 412.603 45.4816C416.15 44.571 419.293 42.5064 421.538 39.613C422.701 38.1136 423.588 36.4358 424.173 34.6575C423.238 34.6482 422.245 34.6428 421.192 34.6428C415.005 34.6428 410.901 34.827 409.079 34.9309C408.497 34.964 408 34.5019 408 33.9189V26.0811C408 25.4981 408.497 25.0359 409.079 25.0691C410.901 25.1729 415.005 25.3571 421.192 25.3571C427.799 25.3571 432.98 25.1471 435.038 25.0492C435.576 25.0235 436.037 25.4245 436.066 25.9632C436.132 27.1652 436.192 29.2804 435.955 31.0679Z" fill="url(#paint19_linear_3_248)"/>
<defs>
<linearGradient id="paint0_linear_3_248" x1="273" y1="3" x2="273" y2="28" gradientUnits="userSpaceOnUse">
<stop stop-color="#9BCF9E" stop-opacity="0.26"/>
<stop offset="0.703125" stop-color="#70D575"/>
</linearGradient>
<linearGradient id="paint1_linear_3_248" x1="273" y1="29" x2="273" y2="55" gradientUnits="userSpaceOnUse">
<stop stop-color="#9BCF9E" stop-opacity="0.26"/>
<stop offset="0.703125" stop-color="#70D575"/>
</linearGradient>
<linearGradient id="paint2_linear_3_248" x1="268" y1="50" x2="303" y2="50" gradientUnits="userSpaceOnUse">
<stop stop-color="#9BCF9E" stop-opacity="0.26"/>
<stop offset="0.703125" stop-color="#70D575"/>
</linearGradient>
<linearGradient id="paint3_linear_3_248" x1="25" y1="3" x2="25" y2="55" gradientUnits="userSpaceOnUse">
<stop stop-color="#6BCE69" stop-opacity="0.35"/>
<stop offset="0.34375" stop-color="#59CD56" stop-opacity="0.58"/>
<stop offset="1" stop-color="#42CC3F"/>
</linearGradient>
<linearGradient id="paint4_linear_3_248" x1="5" y1="3" x2="5" y2="28" gradientUnits="userSpaceOnUse">
<stop stop-color="#9BCF9E" stop-opacity="0.26"/>
<stop offset="0.703125" stop-color="#70D575"/>
</linearGradient>
<linearGradient id="paint5_linear_3_248" x1="5" y1="29" x2="5" y2="55" gradientUnits="userSpaceOnUse">
<stop stop-color="#9BCF9E" stop-opacity="0.26"/>
<stop offset="0.703125" stop-color="#70D575"/>
</linearGradient>
<linearGradient id="paint6_linear_3_248" x1="230" y1="3" x2="230" y2="55" gradientUnits="userSpaceOnUse">
<stop stop-color="#6BCE69" stop-opacity="0.35"/>
<stop offset="0.34375" stop-color="#59CD56" stop-opacity="0.58"/>
<stop offset="1" stop-color="#42CC3F"/>
</linearGradient>
<linearGradient id="paint7_linear_3_248" x1="210" y1="3" x2="210" y2="28" gradientUnits="userSpaceOnUse">
<stop stop-color="#9BCF9E" stop-opacity="0.26"/>
<stop offset="0.703125" stop-color="#70D575"/>
</linearGradient>
<linearGradient id="paint8_linear_3_248" x1="210" y1="29" x2="210" y2="55" gradientUnits="userSpaceOnUse">
<stop stop-color="#9BCF9E" stop-opacity="0.26"/>
<stop offset="0.703125" stop-color="#70D575"/>
</linearGradient>
<radialGradient id="paint9_angular_3_248" cx="0" cy="0" r="1" gradientUnits="userSpaceOnUse" gradientTransform="translate(88 29) rotate(90) scale(26 31)">
<stop offset="0.484375" stop-color="#77BA79"/>
<stop offset="1" stop-color="#B3EDB5"/>
</radialGradient>
<radialGradient id="paint10_angular_3_248" cx="0" cy="0" r="1" gradientUnits="userSpaceOnUse" gradientTransform="translate(88 29) rotate(90) scale(26 31)">
<stop offset="0.484375" stop-color="#77BA79"/>
<stop offset="1" stop-color="#B3EDB5"/>
</radialGradient>
<radialGradient id="paint11_angular_3_248" cx="0" cy="0" r="1" gradientUnits="userSpaceOnUse" gradientTransform="translate(88 29) rotate(90) scale(26 31)">
<stop offset="0.484375" stop-color="#77BA79"/>
<stop offset="1" stop-color="#B3EDB5"/>
</radialGradient>
<radialGradient id="paint12_angular_3_248" cx="0" cy="0" r="1" gradientUnits="userSpaceOnUse" gradientTransform="translate(88 29) rotate(90) scale(26 31)">
<stop offset="0.484375" stop-color="#77BA79"/>
<stop offset="1" stop-color="#B3EDB5"/>
</radialGradient>
<radialGradient id="paint13_angular_3_248" cx="0" cy="0" r="1" gradientUnits="userSpaceOnUse" gradientTransform="translate(88 29) rotate(90) scale(26 31)">
<stop offset="0.484375" stop-color="#77BA79"/>
<stop offset="1" stop-color="#B3EDB5"/>
</radialGradient>
<linearGradient id="paint14_linear_3_248" x1="154.173" y1="24.5283" x2="154.5" y2="49" gradientUnits="userSpaceOnUse">
<stop stop-color="#9BCF9E" stop-opacity="0.26"/>
<stop offset="0.703125" stop-color="#70D575"/>
</linearGradient>
<linearGradient id="paint15_linear_3_248" x1="141" y1="3" x2="141" y2="28" gradientUnits="userSpaceOnUse">
<stop stop-color="#9BCF9E" stop-opacity="0.26"/>
<stop offset="0.703125" stop-color="#70D575"/>
</linearGradient>
<linearGradient id="paint16_linear_3_248" x1="141" y1="29" x2="141" y2="55" gradientUnits="userSpaceOnUse">
<stop stop-color="#9BCF9E" stop-opacity="0.26"/>
<stop offset="0.703125" stop-color="#70D575"/>
</linearGradient>
<linearGradient id="paint17_linear_3_248" x1="183" y1="3" x2="183" y2="28" gradientUnits="userSpaceOnUse">
<stop stop-color="#9BCF9E" stop-opacity="0.26"/>
<stop offset="0.703125" stop-color="#70D575"/>
</linearGradient>
<linearGradient id="paint18_linear_3_248" x1="183" y1="29" x2="183" y2="55" gradientUnits="userSpaceOnUse">
<stop stop-color="#9BCF9E" stop-opacity="0.26"/>
<stop offset="0.703125" stop-color="#70D575"/>
</linearGradient>
<linearGradient id="paint19_linear_3_248" x1="401.5" y1="26.5" x2="429.5" y2="26.4918" gradientUnits="userSpaceOnUse">
<stop stop-color="#70D576"/>
<stop offset="1" stop-color="#70D576" stop-opacity="0.39687"/>
</linearGradient>
</defs>
</svg>
